<?xml version="1.0" encoding="UTF-8"?>
<svg version="1.1" xmlns="http://www.w3.org/2000/svg" width="64" height="64">
<path d="M0 0 C0.65830811 -0.00191345 1.31661621 -0.0038269 1.99487305 -0.00579834 C3.3868854 -0.0071595 4.77891047 -0.00346783 6.17089844 0.00488281 C8.30432589 0.015584 10.43691131 0.00498594 12.5703125 -0.0078125 C13.92187686 -0.00649089 15.2734407 -0.00392847 16.625 0 C18.47544922 0.00338379 18.47544922 0.00338379 20.36328125 0.00683594 C23.3125 0.265625 23.3125 0.265625 25.3125 2.265625 C25.56646729 4.31494141 25.56646729 4.31494141 25.57128906 6.8671875 C25.57759338 7.82157715 25.58389771 8.7759668 25.59039307 9.75927734 C25.5863446 10.79262207 25.58229614 11.8259668 25.578125 12.890625 C25.58099518 14.47738037 25.58099518 14.47738037 25.58392334 16.09619141 C25.58528602 18.33561439 25.58158382 20.57504526 25.57324219 22.81445312 C25.56254402 26.25148177 25.57313488 29.6879877 25.5859375 33.125 C25.58461592 35.29687616 25.58205356 37.46875199 25.578125 39.640625 C25.58217346 40.67396973 25.58622192 41.70731445 25.59039307 42.77197266 C25.58408875 43.7263623 25.57778442 44.68075195 25.57128906 45.6640625 C25.56969788 46.50630371 25.56810669 47.34854492 25.56646729 48.21630859 C25.3125 50.265625 25.3125 50.265625 23.3125 52.265625 C20.1875 52.390625 20.1875 52.390625 17.3125 52.265625 C17.1578125 53.68875 17.1578125 53.68875 17 55.140625 C16.3125 58.265625 16.3125 58.265625 13.3125 60.265625 C10.60217595 60.48546588 7.99702537 60.59361481 5.28515625 60.6015625 C4.49983017 60.6082193 3.71450409 60.6148761 2.90538025 60.62173462 C1.24529359 60.63185415 -0.4148337 60.63655185 -2.07495117 60.63623047 C-4.61249904 60.64060346 -7.1483068 60.67692672 -9.68554688 60.71484375 C-11.29947322 60.72071217 -12.91340783 60.7246814 -14.52734375 60.7265625 C-15.2847435 60.74093353 -16.04214325 60.75530457 -16.82249451 60.77011108 C-20.29561505 60.74004333 -22.33101792 60.51825883 -25.19750977 58.48681641 C-26.6875 56.265625 -26.6875 56.265625 -26.6875 52.265625 C-27.63625 52.306875 -28.585 52.348125 -29.5625 52.390625 C-32.6875 52.265625 -32.6875 52.265625 -34.6875 50.265625 C-34.88602102 47.55639699 -34.96589477 44.97259321 -34.9375 42.265625 C-34.94523437 41.52828125 -34.95296875 40.7909375 -34.9609375 40.03125 C-34.9408196 34.5189446 -34.9408196 34.5189446 -32.6875 32.265625 C-29.5625 32.140625 -29.5625 32.140625 -26.6875 32.265625 C-26.75710937 31.03585938 -26.82671875 29.80609375 -26.8984375 28.5390625 C-26.95473949 26.90630487 -27.00933702 25.27348785 -27.0625 23.640625 C-27.13791016 22.42826172 -27.13791016 22.42826172 -27.21484375 21.19140625 C-27.32161413 16.81382084 -27.06264091 14.03431594 -24.0625 10.703125 C-20.89606636 8.00870632 -18.49463061 7.61181629 -14.3125 7.890625 C-13.25289062 7.94476562 -12.19328125 7.99890625 -11.1015625 8.0546875 C-10.30492188 8.12429687 -9.50828125 8.19390625 -8.6875 8.265625 C-8.72875 7.316875 -8.77 6.368125 -8.8125 5.390625 C-8.57049552 -0.65948688 -5.14881782 0.00941529 0 0 Z M-29.6875 36.265625 C-29.6875 36.925625 -29.6875 37.585625 -29.6875 38.265625 C-28.6975 38.265625 -27.7075 38.265625 -26.6875 38.265625 C-26.6875 37.605625 -26.6875 36.945625 -26.6875 36.265625 C-27.6775 36.265625 -28.6675 36.265625 -29.6875 36.265625 Z " fill="#7B7B7B" transform="translate(36.6875,1.734375)"/>
<path d="M0 0 C3.95096978 -0.04939662 7.9018203 -0.08571755 11.85302734 -0.10986328 C13.8591136 -0.12488107 15.86511324 -0.15028981 17.87109375 -0.17578125 C19.12792969 -0.18222656 20.38476562 -0.18867188 21.6796875 -0.1953125 C22.84226074 -0.20578613 24.00483398 -0.21625977 25.20263672 -0.22705078 C28 0 28 0 30 2 C30.20006302 4.98962103 30.27972923 7.8846235 30.265625 10.875 C30.26849518 12.19540283 30.26849518 12.19540283 30.27142334 13.54248047 C30.27278552 15.40527634 30.26908682 17.26808169 30.26074219 19.13085938 C30.25004307 21.98849736 30.26063632 24.84550666 30.2734375 27.703125 C30.27211591 29.51041806 30.26955353 31.31771073 30.265625 33.125 C30.26967346 33.98335449 30.27372192 34.84170898 30.27789307 35.72607422 C30.22991745 41.77008255 30.22991745 41.77008255 28 44 C25.56255103 44.17488254 23.2406392 44.23177405 20.8046875 44.1953125 C20.09724396 44.1924826 19.38980042 44.18965271 18.66091919 44.18673706 C16.3987749 44.17553137 14.13702485 44.15042679 11.875 44.125 C10.34245363 44.11497067 8.80990106 44.10584474 7.27734375 44.09765625 C3.51807699 44.07559086 -0.24089464 44.04105896 -4 44 C-4.66 42.68 -5.32 41.36 -6 40 C-5.16750732 39.98541748 -4.33501465 39.97083496 -3.47729492 39.95581055 C-0.38510347 39.8947137 2.70642082 39.82055444 5.7980957 39.73754883 C7.7929063 39.68798681 9.78807257 39.65348867 11.78320312 39.61914062 C13.03681641 39.58369141 14.29042969 39.54824219 15.58203125 39.51171875 C16.73936768 39.48553467 17.8967041 39.45935059 19.08911133 39.43237305 C21.97506105 39.22448492 21.97506105 39.22448492 23.87768555 37.69067383 C25.76905503 34.84148225 25.35940238 32.29452181 25 29 C21.46435537 26.64290358 19.77974745 26.69990265 15.58203125 26.5859375 C14.32841797 26.54726563 13.07480469 26.50859375 11.78320312 26.46875 C10.47287109 26.4378125 9.16253906 26.406875 7.8125 26.375 C6.4771884 26.33680662 5.14190108 26.29775409 3.80664062 26.2578125 C0.53799389 26.16341115 -2.73098412 26.08061168 -6 26 C-6 19.4 -6 12.8 -6 6 C-4.35 5.67 -2.7 5.34 -1 5 C-0.67 3.35 -0.34 1.7 0 0 Z " fill="#E1E1E2" transform="translate(20,14)"/>
<path d="M0 0 C0.94875 0.04125 1.8975 0.0825 2.875 0.125 C2.875 1.445 2.875 2.765 2.875 4.125 C1.885 4.125 0.895 4.125 -0.125 4.125 C-0.125 4.785 -0.125 5.445 -0.125 6.125 C0.91430664 6.10928955 1.95361328 6.0935791 3.02441406 6.07739258 C6.8858259 6.02303158 10.747204 5.98862767 14.60888672 5.96020508 C16.27919201 5.94513246 17.94945781 5.9246708 19.61962891 5.89868164 C22.02256013 5.86223027 24.42496744 5.84525869 26.828125 5.83203125 C27.57306213 5.81654739 28.31799927 5.80106354 29.08551025 5.78511047 C32.24943776 5.78408692 34.52393112 5.93986006 37.34667969 7.4284668 C38.875 9.125 38.875 9.125 39.375 12.5625 C38.875 16.125 38.875 16.125 37.38330078 18.31884766 C33.81330038 20.88949813 30.47539772 20.66157692 26.2421875 20.5859375 C24.99261765 20.58456284 24.99261765 20.58456284 23.71780396 20.5831604 C21.96106246 20.57712929 20.20433102 20.56139787 18.44775391 20.53662109 C15.7525466 20.50003457 13.05871133 20.49560233 10.36328125 20.49609375 C8.65623807 20.48626533 6.94920422 20.47460952 5.2421875 20.4609375 C4.43385468 20.45871185 3.62552185 20.45648621 2.79269409 20.45419312 C-2.89282841 20.35717159 -2.89282841 20.35717159 -5.125 18.125 C-5.32352102 15.41577199 -5.40339477 12.83196821 -5.375 10.125 C-5.38273438 9.38765625 -5.39046875 8.6503125 -5.3984375 7.890625 C-5.3704236 0.21481694 -5.3704236 0.21481694 0 0 Z " fill="#0238B1" transform="translate(7.125,33.875)"/>
<path d="M0 0 C0.65830811 -0.00191345 1.31661621 -0.0038269 1.99487305 -0.00579834 C3.3868854 -0.0071595 4.77891047 -0.00346783 6.17089844 0.00488281 C8.30432589 0.015584 10.43691131 0.00498594 12.5703125 -0.0078125 C13.92187686 -0.00649089 15.2734407 -0.00392847 16.625 0 C18.47544922 0.00338379 18.47544922 0.00338379 20.36328125 0.00683594 C23.3125 0.265625 23.3125 0.265625 25.3125 2.265625 C25.56646729 4.31494141 25.56646729 4.31494141 25.57128906 6.8671875 C25.57759338 7.82157715 25.58389771 8.7759668 25.59039307 9.75927734 C25.5863446 10.79262207 25.58229614 11.8259668 25.578125 12.890625 C25.58099518 14.47738037 25.58099518 14.47738037 25.58392334 16.09619141 C25.58528602 18.33561439 25.58158382 20.57504526 25.57324219 22.81445312 C25.56254402 26.25148177 25.57313488 29.6879877 25.5859375 33.125 C25.58461592 35.29687616 25.58205356 37.46875199 25.578125 39.640625 C25.58217346 40.67396973 25.58622192 41.70731445 25.59039307 42.77197266 C25.58408875 43.7263623 25.57778442 44.68075195 25.57128906 45.6640625 C25.56969788 46.50630371 25.56810669 47.34854492 25.56646729 48.21630859 C25.3125 50.265625 25.3125 50.265625 23.3125 52.265625 C20.1875 52.390625 20.1875 52.390625 17.3125 52.265625 C17.3031543 51.10514648 17.29380859 49.94466797 17.28417969 48.74902344 C17.24428124 44.43987769 17.17852316 40.13144601 17.10498047 35.82275391 C17.07676994 33.95858947 17.05555579 32.0943054 17.04150391 30.22998047 C17.02007516 27.54853059 16.97342702 24.86851914 16.921875 22.1875 C16.92064636 21.35506775 16.91941772 20.5226355 16.91815186 19.66497803 C16.82407951 15.94138518 16.72859192 13.87281795 14.5859375 10.74609375 C11.95292294 9.03146743 10.45137809 8.7324269 7.328125 8.65625 C6.39355469 8.62402344 5.45898438 8.59179688 4.49609375 8.55859375 C3.52800781 8.54441406 2.55992188 8.53023437 1.5625 8.515625 C0.57894531 8.48597656 -0.40460937 8.45632813 -1.41796875 8.42578125 C-3.84122776 8.35520089 -6.26353154 8.30244799 -8.6875 8.265625 C-8.8125 5.390625 -8.8125 5.390625 -8.6875 2.265625 C-5.85490425 -0.56697075 -3.9605534 0.00724239 0 0 Z " fill="#979797" transform="translate(36.6875,1.734375)"/>
<path d="M0 0 C5.28 0 10.56 0 16 0 C16 0.66 16 1.32 16 2 C15.01 2 14.02 2 13 2 C13 2.66 13 3.32 13 4 C13.99 4 14.98 4 16 4 C16 4.66 16 5.32 16 6 C10.72 6 5.44 6 0 6 C0 4.02 0 2.04 0 0 Z " fill="#AABCE5" transform="translate(20,44)"/>
<path d="M0 0 C1.32 0.33 2.64 0.66 4 1 C3.67 2.65 3.34 4.3 3 6 C2.01 6 1.02 6 0 6 C0 4.02 0 2.04 0 0 Z " fill="#BDCBEB" transform="translate(20,44)"/>
</svg>
