<?xml version="1.0" encoding="UTF-8"?>
<svg version="1.1" xmlns="http://www.w3.org/2000/svg" width="64" height="64">
<path d="M0 0 C0.75410156 -0.01623413 1.50820313 -0.03246826 2.28515625 -0.04919434 C10.64426533 -0.13746323 18.0196638 -0.11597659 24.52441406 5.81640625 C28.12337874 9.84920199 31.11448587 13.59743668 32.25 19 C32.62511719 18.55527344 33.00023437 18.11054688 33.38671875 17.65234375 C34.9329721 15.94250692 36.42555368 14.41136413 38.25 13 C41.30684838 12.9289105 42.58021196 13.53807721 45.0625 15.25 C46.78817299 17.79309704 46.81251391 18.9624249 46.25 22 C44.63761563 23.38561031 43.01336076 24.76076467 41.32128906 26.04785156 C36.57358634 29.77538676 32.8760864 33.20127217 31.52099609 39.25878906 C30.82450983 46.34695765 30.94937373 53.41170572 31.34667969 60.51660156 C31.25 63 31.25 63 29.25 65 C27.3145752 65.25396729 27.3145752 65.25396729 24.92382812 65.25878906 C24.02950073 65.26509338 23.13517334 65.27139771 22.21374512 65.27789307 C21.24602173 65.2738446 20.27829834 65.26979614 19.28125 65.265625 C18.29000122 65.26753845 17.29875244 65.2694519 16.27746582 65.27142334 C14.17927802 65.27278585 12.08108181 65.26908482 9.98291016 65.26074219 C6.76315454 65.25004371 3.54395692 65.26063536 0.32421875 65.2734375 C-1.71093874 65.27211592 -3.74609588 65.26955355 -5.78125 65.265625 C-6.74897339 65.26967346 -7.71669678 65.27372192 -8.71374512 65.27789307 C-10.05523621 65.26843658 -10.05523621 65.26843658 -11.42382812 65.25878906 C-12.21277466 65.25719788 -13.00172119 65.25560669 -13.8145752 65.25396729 C-15.75 65 -15.75 65 -17.75 63 C-18.00396729 60.49511719 -18.00396729 60.49511719 -18.00878906 57.296875 C-18.01509338 56.10223633 -18.02139771 54.90759766 -18.02789307 53.67675781 C-18.0238446 52.38092773 -18.01979614 51.08509766 -18.015625 49.75 C-18.01697178 48.41243418 -18.01891243 47.07486883 -18.02142334 45.73730469 C-18.024374 42.93289534 -18.02007894 40.12861331 -18.01074219 37.32421875 C-17.99934754 33.72595078 -18.00590734 30.12798114 -18.01788712 26.52972412 C-18.02510736 23.76739242 -18.02281706 21.00513167 -18.01763153 18.24279785 C-18.01564475 16.26961067 -18.02172842 14.29642074 -18.02789307 12.32324219 C-18.02158875 11.12860352 -18.01528442 9.93396484 -18.00878906 8.703125 C-18.00719788 7.64770508 -18.00560669 6.59228516 -18.00396729 5.50488281 C-17.25520963 -1.88012424 -5.77508269 0.12154506 0 0 Z " fill="#E3F1F8" transform="translate(17.75,-1)"/>
<path d="M0 0 C11 0 11 0 15.1015625 2.921875 C16.30537924 4.17027754 17.48005214 5.44739567 18.625 6.75 C19.23472656 7.38421875 19.84445313 8.0184375 20.47265625 8.671875 C23.32149252 11.71740153 25.23383866 13.8153161 26 18 C26.37511719 17.55527344 26.75023437 17.11054688 27.13671875 16.65234375 C28.6829721 14.94250692 30.17555368 13.41136413 32 12 C35.05684838 11.9289105 36.33021196 12.53807721 38.8125 14.25 C40.54525067 16.8035273 40.52242999 17.93337844 40 21 C38.10012064 23.56700363 35.82211372 25.69200722 33.5 27.875 C32.8594165 28.49487793 32.21883301 29.11475586 31.55883789 29.75341797 C27.16471124 33.97911699 22.70035737 38.11559709 18 42 C16.700625 43.11375 16.700625 43.11375 15.375 44.25 C8.76774547 49.11850334 3.59557389 49.38804992 -4.375 49.1875 C-5.90833984 49.16719727 -5.90833984 49.16719727 -7.47265625 49.14648438 C-9.98232049 49.11130217 -12.4908809 49.06207539 -15 49 C-14.67 47.68 -14.34 46.36 -14 45 C-7.73 45 -1.46 45 5 45 C5.66 43.02 6.32 41.04 7 39 C0.07 38.67 -6.86 38.34 -14 38 C-14.33 36.68 -14.66 35.36 -15 34 C-10.05 34 -5.1 34 0 34 C0 31.69 0 29.38 0 27 C-4.62 27 -9.24 27 -14 27 C-14.33 25.68 -14.66 24.36 -15 23 C-10.05 23 -5.1 23 0 23 C0 15.41 0 7.82 0 0 Z " fill="#BBDDEF" transform="translate(24,0)"/>
<path d="M0 0 C0.33 0 0.66 0 1 0 C1.0578304 4.45827926 1.09353855 8.9164628 1.125 13.375 C1.14175781 14.64601563 1.15851562 15.91703125 1.17578125 17.2265625 C1.18222656 18.43828125 1.18867187 19.65 1.1953125 20.8984375 C1.20578613 22.01911621 1.21625977 23.13979492 1.22705078 24.29443359 C1 27 1 27 -1 29 C-3.33837891 29.22705078 -3.33837891 29.22705078 -6.2265625 29.1953125 C-7.7734375 29.18564453 -7.7734375 29.18564453 -9.3515625 29.17578125 C-10.43179688 29.15902344 -11.51203125 29.14226562 -12.625 29.125 C-13.71296875 29.11597656 -14.8009375 29.10695313 -15.921875 29.09765625 C-18.61467649 29.07403518 -21.30736535 29.03816333 -24 29 C-24 24.05 -24 19.1 -24 14 C-22.68 13.773125 -21.36 13.54625 -20 13.3125 C-12.07838305 11.52454884 -6.81189141 7.19311406 -1.34765625 1.35546875 C-0.90292969 0.90816406 -0.45820312 0.46085937 0 0 Z " fill="#BDE0F0" transform="translate(48,35)"/>
<path d="M0 0 C2.71000247 0.28526342 4.55647772 0.69412256 6.8125 2.25 C8.54525067 4.8035273 8.52242999 5.93337844 8 9 C6.10015489 11.56695736 3.82253786 13.69250876 1.5 15.875 C0.8601416 16.49197754 0.2202832 17.10895508 -0.43896484 17.74462891 C-2.2801052 19.51024008 -4.13801986 21.25642378 -6 23 C-6.84820312 23.8146875 -7.69640625 24.629375 -8.5703125 25.46875 C-13.45440574 30 -13.45440574 30 -18 30 C-20.01623639 28.21722256 -21.37344618 26.16873843 -23 24 C-22.58226318 23.5875 -22.16452637 23.175 -21.73413086 22.75 C-11.01722796 12.20305052 -11.01722796 12.20305052 -1 1 C-0.67 0.67 -0.34 0.34 0 0 Z " fill="#4BBBFD" transform="translate(56,12)"/>
<path d="M0 0 C8.58 0 17.16 0 26 0 C25.67 0.99 25.34 1.98 25 3 C26.20129367 4.90801574 26.20129367 4.90801574 27.9375 6.6875 C28.95833333 7.79166667 29.97916667 8.89583333 31 10 C24.10561144 14.77834244 18.71679479 15.66865762 10.4375 15.3125 C8.92446289 15.27866211 8.92446289 15.27866211 7.38085938 15.24414062 C4.91896632 15.18580193 2.46031372 15.10402003 0 15 C0.33 13.68 0.66 12.36 1 11 C7.27 11 13.54 11 20 11 C20.66 9.02 21.32 7.04 22 5 C15.07 4.67 8.14 4.34 1 4 C0.67 2.68 0.34 1.36 0 0 Z " fill="#F4D731" transform="translate(9,34)"/>
<path d="M0 0 C1.32 0.66 2.64 1.32 4 2 C4 5 4 5 2.53125 6.796875 C0.36633231 8.87852662 -1.8028508 10.95231673 -4 13 C-5.07507813 14.02867188 -5.07507813 14.02867188 -6.171875 15.078125 C-6.85765625 15.71234375 -7.5434375 16.3465625 -8.25 17 C-8.87390625 17.5775 -9.4978125 18.155 -10.140625 18.75 C-12 20 -12 20 -16 20 C-16 16 -16 16 -14.53125 14.07714844 C-13.8609375 13.4277832 -13.190625 12.77841797 -12.5 12.109375 C-11.778125 11.40039062 -11.05625 10.69140625 -10.3125 9.9609375 C-9.549375 9.23132812 -8.78625 8.50171875 -8 7.75 C-7.236875 7.00492188 -6.47375 6.25984375 -5.6875 5.4921875 C-3.80031094 3.65217816 -1.90443371 1.82212773 0 0 Z " fill="#0599FE" transform="translate(54,22)"/>
<path d="M0 0 C10.23 0 20.46 0 31 0 C30.67 1.32 30.34 2.64 30 4 C20.43 4 10.86 4 1 4 C0.67 2.68 0.34 1.36 0 0 Z " fill="#6C6F8D" transform="translate(9,23)"/>
<path d="M0 0 C3.97174513 1.98587256 6.15007608 3.88194787 9.25 7 C10.14203125 7.886875 11.0340625 8.77375 11.953125 9.6875 C14 12 14 12 14 14 C9.38 14 4.76 14 0 14 C0 9.38 0 4.76 0 0 Z " fill="#7CC0E3" transform="translate(34,1)"/>
<path d="M0 0 C2.54041924 1.06965021 3.82705397 1.71881638 5.375 4 C5.8125 6.4375 5.8125 6.4375 5.375 9 C3.375 11.3125 3.375 11.3125 1.375 13 C-2.8992558 11.4169423 -4.89031794 8.49431596 -7.625 5 C-3.35670732 0 -3.35670732 0 0 0 Z " fill="#E1F1F8" transform="translate(58.625,12)"/>
<path d="M0 0 C8.58 0 17.16 0 26 0 C23 4 23 4 20.63989258 4.45410156 C19.73392334 4.4331543 18.8279541 4.41220703 17.89453125 4.390625 C16.42016602 4.37128906 16.42016602 4.37128906 14.91601562 4.3515625 C13.89185547 4.31804688 12.86769531 4.28453125 11.8125 4.25 C10.25885742 4.22292969 10.25885742 4.22292969 8.67382812 4.1953125 C6.11495716 4.14814437 3.55794158 4.08234057 1 4 C0.67 2.68 0.34 1.36 0 0 Z " fill="#68698A" transform="translate(9,34)"/>
<path d="M0 0 C5.94 0 11.88 0 18 0 C18 1.32 18 2.64 18 4 C11.73 4 5.46 4 -1 4 C-0.67 2.68 -0.34 1.36 0 0 Z " fill="#626381" transform="translate(10,45)"/>
<path d="M0 0 C0.99 0.33 1.98 0.66 3 1 C3.25 3.25 3.25 3.25 3 6 C1 8.3125 1 8.3125 -1 10 C-2.32 9.34 -3.64 8.68 -5 8 C-5 5 -5 5 -2.5 2.3125 C-1.675 1.549375 -0.85 0.78625 0 0 Z " fill="#BFE1F1" transform="translate(61,15)"/>
<path d="M0 0 C5.28 0 10.56 0 16 0 C16 0.99 16 1.98 16 3 C10.72 3 5.44 3 0 3 C0 2.01 0 1.02 0 0 Z " fill="#3D3E57" transform="translate(24,23)"/>
<path d="M0 0 C2.64 0 5.28 0 8 0 C7.01 2.31 6.02 4.62 5 7 C3.35 7 1.7 7 0 7 C0 4.69 0 2.38 0 0 Z " fill="#C0E1EF" transform="translate(24,38)"/>
<path d="M0 0 C3.875 1.75 3.875 1.75 5 4 C2.36 6.31 -0.28 8.62 -3 11 C-4 8 -4 8 -3.22265625 5.95703125 C-2.83980469 5.24933594 -2.45695312 4.54164062 -2.0625 3.8125 C-1.68222656 3.09707031 -1.30195313 2.38164063 -0.91015625 1.64453125 C-0.60980469 1.10183594 -0.30945313 0.55914062 0 0 Z " fill="#EEEF80" transform="translate(32,37)"/>
<path d="M0 0 C3.63 0 7.26 0 11 0 C8 4 8 4 5.95703125 4.390625 C3.97135417 4.26041667 1.98567708 4.13020833 0 4 C0 2.68 0 1.36 0 0 Z " fill="#41425B" transform="translate(24,34)"/>
</svg>
