<?xml version="1.0" encoding="UTF-8"?>
<svg version="1.1" xmlns="http://www.w3.org/2000/svg" width="256" height="256">
<path d="M0 0 C1.37307658 -0.00515245 2.7461465 -0.01244365 4.11920166 -0.02168274 C7.81151498 -0.04003522 11.50309664 -0.02736289 15.19537854 -0.00759244 C19.08061236 0.00892723 22.96580465 -0.00003703 26.85105896 -0.00511169 C33.37136371 -0.00961738 39.89138015 0.00614323 46.41162109 0.03417969 C53.92467382 0.06623828 61.4372073 0.0662057 68.95029694 0.04896492 C76.21187883 0.03304264 83.47327235 0.039869 90.73484612 0.05690193 C93.8099571 0.06373225 96.88491526 0.06278178 99.96002388 0.05535698 C103.58745311 0.04763508 107.21429893 0.06000972 110.84162903 0.08720589 C112.78957311 0.09725582 114.73758773 0.08796936 116.68553162 0.07788086 C128.67250114 0.20668586 138.11960864 3.26221949 146.86889648 11.63110352 C158.48481314 24.00608008 159.02781203 37.21633653 159.07202148 53.42016602 C159.07626255 54.47360262 159.07626255 54.47360262 159.08058929 55.54832077 C159.09549415 59.25755936 159.10478122 62.96675986 159.10913086 66.67602539 C159.11463433 70.49349498 159.13872619 74.31061131 159.16710281 78.12796974 C159.18576021 81.07916281 159.19093621 84.03027074 159.19246674 86.98151779 C159.19548164 88.38886848 159.20347071 89.79621809 159.21665192 91.20351028 C159.23379229 93.17230352 159.22997584 95.14124503 159.2253418 97.11010742 C159.23081024 98.78600449 159.23081024 98.78600449 159.23638916 100.49575806 C158.68995872 105.15775087 157.22177465 108.53417528 153.55639648 111.50610352 C150.34603255 112.84997679 148.32142452 113.06266952 144.86889648 112.63110352 C141.37482879 110.9634803 140.04218967 109.8910433 137.86889648 106.63110352 C137.61061096 103.74263 137.61061096 103.74263 137.59765625 100.17529297 C137.5924295 99.52446243 137.58720276 98.8736319 137.58181763 98.20307922 C137.57158222 96.79044822 137.56579802 95.37777955 137.56393623 93.96511269 C137.56026867 91.72356794 137.54352915 89.48246414 137.5231781 87.24101257 C137.4678222 80.86827838 137.43717917 74.4954778 137.41259766 68.12255859 C137.39664724 64.2221097 137.3663441 60.32197018 137.32783318 56.42168236 C137.31624166 54.94067885 137.31025334 53.4596198 137.31015205 51.97857094 C137.32171348 37.58303097 137.32171348 37.58303097 129.86889648 25.63110352 C122.37370766 21.06881466 114.62855142 21.48235519 106.13134766 21.48583984 C104.95499252 21.48248123 103.77863739 21.47912262 102.56663513 21.47566223 C99.35160251 21.46780779 96.13660873 21.46448569 92.92156768 21.46384645 C90.90900063 21.46313375 88.89644027 21.46099527 86.88387489 21.45834923 C79.85145262 21.44910781 72.81904924 21.44501278 65.78662109 21.44580078 C59.249668 21.44640107 52.71279755 21.43585572 46.17586535 21.42005712 C40.54847014 21.40694535 34.92110181 21.40161841 29.29369146 21.40225619 C25.93940805 21.40251013 22.58525648 21.39878522 19.23097801 21.38907814 C15.48545904 21.37925382 11.74015146 21.38216614 7.99462891 21.38818359 C6.89562256 21.38256409 5.79661621 21.37694458 4.66430664 21.37115479 C-7.0557314 21.35577373 -7.0557314 21.35577373 -17.13110352 26.63110352 C-17.79110352 26.63110352 -18.45110352 26.63110352 -19.13110352 26.63110352 C-22.07634088 32.31120415 -23.426316 36.81406428 -23.39179993 43.25328064 C-23.39562547 44.01286011 -23.39945102 44.77243958 -23.40339249 45.5550366 C-23.41369751 48.0960066 -23.40973513 50.63674957 -23.40576172 53.17773438 C-23.41010956 55.00122791 -23.41529295 56.82471962 -23.42124939 58.64820862 C-23.43464248 63.59859133 -23.43521773 68.5488977 -23.43268609 73.499295 C-23.43161664 77.63208747 -23.43649905 81.76486448 -23.44129151 85.89765364 C-23.45238766 95.64727564 -23.45282342 105.39685911 -23.44677734 115.14648438 C-23.44073579 125.20475914 -23.45305294 135.26289409 -23.47434741 145.321145 C-23.49195905 153.95737059 -23.49796548 162.59355167 -23.49470967 171.22979456 C-23.49289606 176.38760432 -23.49554088 181.54531433 -23.50942421 186.70310783 C-23.52199086 191.55323101 -23.52006943 196.40313606 -23.50701332 201.25325584 C-23.5046455 203.03261641 -23.50738958 204.81199227 -23.51563644 206.5913353 C-23.52608829 209.02179124 -23.51801618 211.45151316 -23.50532532 213.88194275 C-23.5126996 214.58477148 -23.52007389 215.28760022 -23.52767164 216.0117268 C-23.47703253 220.62676416 -22.39903081 223.64788893 -20.13110352 227.63110352 C-19.80110352 228.62110352 -19.47110352 229.61110352 -19.13110352 230.63110352 C-17.34881415 231.77320169 -17.34881415 231.77320169 -15.13110352 232.63110352 C-14.34735352 232.98172852 -13.56360352 233.33235352 -12.75610352 233.69360352 C-7.12667525 235.70411361 -1.52750055 235.77466864 4.37280273 235.80688477 C6.01669597 235.83006701 7.66057625 235.85418368 9.30444336 235.87915039 C11.87411425 235.91432441 14.44330054 235.94366543 17.01318359 235.95703125 C19.50863635 235.97251912 22.00271443 236.01270459 24.49780273 236.05688477 C25.26250381 236.05497635 26.0272049 236.05306793 26.81507874 236.05110168 C31.77873185 236.16462812 34.39131845 237.06859481 37.86889648 240.63110352 C39.46976275 243.83283605 39.36806738 247.1568741 38.86889648 250.63110352 C37.07525738 253.44113812 35.85008713 255.14050819 32.86889648 256.63110352 C31.42164208 256.74567432 29.9694143 256.80047249 28.51782227 256.82397461 C27.1646843 256.848069 27.1646843 256.848069 25.78421021 256.87265015 C21.62169196 256.91734586 17.45933393 256.95824053 13.29663086 256.98120117 C11.1126025 256.99766856 8.92862593 257.0248346 6.74487305 257.06323242 C-16.57362771 257.47089852 -16.57362771 257.47089852 -26.13110352 251.63110352 C-27.28775513 250.93114258 -27.28775513 250.93114258 -28.46777344 250.21704102 C-36.51167352 245.03268628 -41.35267498 236.5838177 -44.13110352 227.63110352 C-44.31641003 227.05364191 -44.50171654 226.47618031 -44.6926384 225.88121986 C-45.33232501 222.59847455 -45.27554968 219.33530528 -45.27154541 216.00424194 C-45.27451653 215.23200495 -45.27748765 214.45976796 -45.28054881 213.66412985 C-45.28922644 211.07417131 -45.29074328 208.48425904 -45.29223633 205.89428711 C-45.29686525 204.0380239 -45.30189001 202.18176164 -45.30728149 200.32550049 C-45.32040242 195.27977264 -45.32685014 190.23405811 -45.33129215 185.18831587 C-45.33422405 182.03434158 -45.33832914 178.88037093 -45.34279633 175.72639847 C-45.35647195 165.85391551 -45.36613765 155.98144084 -45.36999822 146.10894907 C-45.37447588 134.72139478 -45.39201001 123.3339607 -45.42099881 111.94644296 C-45.4426381 103.13948235 -45.45270374 94.33255551 -45.45403934 85.5255686 C-45.45508597 80.26812152 -45.46096349 75.01078742 -45.47885895 69.75336838 C-45.4953779 64.80394605 -45.49747656 59.85472119 -45.48871994 54.90528107 C-45.48795155 53.09373316 -45.49226606 51.28217448 -45.50217819 49.47065353 C-45.57967484 34.41849168 -44.0101976 23.2788897 -33.56860352 11.81860352 C-23.29007637 2.59428428 -13.68553956 -0.12719422 0 0 Z " fill="#20D4FE" transform="translate(58.131103515625,-0.631103515625)"/>
<path d="M0 0 C8.10423723 3.86489201 13.17481907 9.78310976 16.52734375 18.11328125 C18.62578903 25.8784958 18.66551573 34.86208362 14.73280334 42.0305481 C10.19639984 49.44570835 4.24423037 55.6720542 -1.90234375 61.7578125 C-3.05761314 62.91239456 -3.05761314 62.91239456 -4.23622131 64.09030151 C-5.8532671 65.70434783 -7.4727207 67.31598519 -9.09448242 68.92529297 C-11.55770725 71.37024281 -14.01281696 73.82311846 -16.46679688 76.27734375 C-18.04900833 77.85463911 -19.63167547 79.43147753 -21.21484375 81.0078125 C-21.93905014 81.73090607 -22.66325653 82.45399963 -23.40940857 83.19900513 C-27.45771514 87.21028548 -31.59673284 91.04935291 -35.9356842 94.74530029 C-38.21375277 96.7744112 -40.13558123 99.06638345 -42.125 101.375 C-47.6970724 106.9470724 -53.63227246 108.74513027 -61.07568359 110.58886719 C-64.02855465 111.35465677 -66.94192942 112.22325911 -69.86328125 113.1015625 C-72.07528648 113.75600096 -74.28752634 114.40964692 -76.5 115.0625 C-78.06826538 115.53465942 -78.06826538 115.53465942 -79.66821289 116.01635742 C-85.93605862 117.80695714 -92.08391098 119.24523146 -98.625 118.25 C-102.21393508 115.83296209 -103.35573781 114.33232509 -104.39746094 110.14501953 C-104.68117923 105.28832241 -103.64605403 101.59158708 -102.203125 96.9921875 C-101.8121463 95.69306931 -101.8121463 95.69306931 -101.41326904 94.3677063 C-100.86167417 92.54533167 -100.30321045 90.72502352 -99.73828125 88.90673828 C-98.87695851 86.13131089 -98.03838155 83.34977586 -97.203125 80.56640625 C-96.66278302 78.7912629 -96.12115934 77.01650908 -95.578125 75.2421875 C-95.32798645 74.41500214 -95.0778479 73.58781677 -94.82012939 72.73556519 C-94.57687927 71.9577066 -94.33362915 71.17984802 -94.08300781 70.37841797 C-93.76870819 69.36084915 -93.76870819 69.36084915 -93.44805908 68.32272339 C-91.39570459 63.15424491 -88.1182114 59.43816061 -84.24243164 55.54516602 C-83.70531555 54.99812012 -83.16819946 54.45107422 -82.61480713 53.88745117 C-80.84381092 52.08735575 -79.06521776 50.29503526 -77.28515625 48.50390625 C-76.3684657 47.57873357 -76.3684657 47.57873357 -75.43325615 46.63487053 C-72.19589807 43.36757745 -68.95285995 40.10605247 -65.70483398 36.84936523 C-62.37277439 33.50637488 -59.05965467 30.14526852 -55.75077152 26.77935886 C-53.18449831 24.17557616 -50.60465087 21.58556052 -48.02108574 18.99894524 C-46.79505096 17.76690885 -45.5739561 16.5299338 -44.3582325 15.28772163 C-31.81903859 2.4951308 -18.55728815 -6.90375303 0 0 Z M-20.625 22.25 C-19.03832422 26.15285767 -16.49149519 28.58520982 -13.5 31.5 C-12.58992188 32.39203125 -11.67984375 33.2840625 -10.7421875 34.203125 C-10.04351562 34.87859375 -9.34484375 35.5540625 -8.625 36.25 C-4.77751671 32.87634726 -4.77751671 32.87634726 -3.0625 28.25 C-3.74857657 24.59092496 -5.05234314 22.89832324 -7.625 20.25 C-12.33177684 17.89661158 -16.90408212 18.67791884 -20.625 22.25 Z M-39.96386719 41.31665039 C-40.66840027 41.98898209 -41.37293335 42.66131378 -42.09881592 43.35401917 C-45.3477083 46.49183667 -48.58212667 49.64402322 -51.80664062 52.80688477 C-53.50181787 54.46064942 -55.20675842 56.10447243 -56.921875 57.73754883 C-71.15803066 71.20459874 -71.15803066 71.20459874 -77.625 89.25 C-77.625 90.24 -77.625 91.23 -77.625 92.25 C-66.23169693 90.98407744 -58.68686662 88.545817 -50.67578125 80.08203125 C-49.89228806 79.28721848 -49.10879486 78.4924057 -48.30155945 77.67350769 C-45.82728941 75.15480312 -43.38245406 72.60963844 -40.9375 70.0625 C-39.25513103 68.33996279 -37.57090264 66.61923958 -35.88476562 64.90039062 C-31.77644489 60.70432772 -27.69186803 56.48623086 -23.625 52.25 C-25.40103949 48.42249515 -27.67008494 45.96965741 -30.6875 43 C-31.58597656 42.10796875 -32.48445313 41.2159375 -33.41015625 40.296875 C-36.77583681 37.18644006 -36.91071063 38.40059581 -39.96386719 41.31665039 Z " fill="#45B4FE" transform="translate(225.625,137.75)"/>
<path d="M0 0 C0.93790878 -0.00860046 1.87581757 -0.01720093 2.84214783 -0.02606201 C3.87438477 -0.03032196 4.9066217 -0.03458191 5.97013855 -0.03897095 C7.05479904 -0.04714844 8.13945953 -0.05532593 9.25698853 -0.06375122 C12.85822491 -0.08863116 16.45942184 -0.10512703 20.06071472 -0.11953735 C21.2882868 -0.12486103 22.51585888 -0.13018471 23.78063011 -0.13566971 C29.60640264 -0.15965181 35.43215884 -0.17889275 41.25796682 -0.19169176 C47.98147075 -0.20675613 54.70448937 -0.24185072 61.42780763 -0.29369295 C67.25197382 -0.33706987 73.07597688 -0.35303785 78.90028954 -0.35942459 C81.37747123 -0.36615348 83.85464479 -0.38141765 86.33172035 -0.4053154 C89.79623776 -0.43683507 93.25942243 -0.43702296 96.7240448 -0.42959595 C97.75020905 -0.44600128 98.77637329 -0.46240662 99.83363342 -0.47930908 C104.55877481 -0.43777557 106.79594147 -0.41020201 110.65475464 2.51068115 C112.88330347 5.63327051 113.54118347 7.31438581 113.54118347 11.15390015 C112.09122917 15.50376305 111.39233672 17.58646465 107.54118347 20.15390015 C105.43686104 20.41116905 105.43686104 20.41116905 102.96211243 20.42132568 C102.02282898 20.42985565 101.08354553 20.43838562 100.11579895 20.44717407 C99.08715729 20.4462677 98.05851562 20.44536133 96.998703 20.44442749 C95.37149323 20.45450333 95.37149323 20.45450333 93.71141052 20.46478271 C90.11555943 20.48382299 86.51989438 20.48768998 82.92399597 20.48983765 C80.42919334 20.49626139 77.93439148 20.50298943 75.43959045 20.51000977 C70.20570159 20.52199764 64.9718601 20.52577455 59.73796082 20.52450562 C54.36023635 20.52343714 48.982799 20.53752383 43.60514832 20.56552124 C37.11775351 20.59881763 30.63061698 20.61261836 24.14313889 20.61128616 C21.66877153 20.61364899 19.19440164 20.62251059 16.72008133 20.6379509 C13.26056939 20.65751705 9.80197936 20.65180892 6.342453 20.63973999 C4.8055632 20.65659851 4.8055632 20.65659851 3.23762512 20.67379761 C-1.18669945 20.63451869 -3.73443919 20.59732763 -7.57139587 18.24853516 C-10.52654034 14.96895408 -10.79198845 12.61531142 -10.75178528 8.19296265 C-10.29626686 5.02255448 -8.70565996 3.33465994 -6.45881653 1.15390015 C-4.09048693 -0.03026465 -2.64262843 0.01801091 0 0 Z " fill="#30C6FE" transform="translate(63.45881652832031,99.84609985351563)"/>
<path d="M0 0 C0.93790878 -0.00860046 1.87581757 -0.01720093 2.84214783 -0.02606201 C3.87438477 -0.03032196 4.9066217 -0.03458191 5.97013855 -0.03897095 C7.05479904 -0.04714844 8.13945953 -0.05532593 9.25698853 -0.06375122 C12.85822491 -0.08863116 16.45942184 -0.10512703 20.06071472 -0.11953735 C21.2882868 -0.12486103 22.51585888 -0.13018471 23.78063011 -0.13566971 C29.60640264 -0.15965181 35.43215884 -0.17889275 41.25796682 -0.19169176 C47.98147075 -0.20675613 54.70448937 -0.24185072 61.42780763 -0.29369295 C67.25197382 -0.33706987 73.07597688 -0.35303785 78.90028954 -0.35942459 C81.37747123 -0.36615348 83.85464479 -0.38141765 86.33172035 -0.4053154 C89.79623776 -0.43683507 93.25942243 -0.43702296 96.7240448 -0.42959595 C97.75020905 -0.44600128 98.77637329 -0.46240662 99.83363342 -0.47930908 C104.55877481 -0.43777557 106.79594147 -0.41020201 110.65475464 2.51068115 C112.88330347 5.63327051 113.54118347 7.31438581 113.54118347 11.15390015 C112.09122917 15.50376305 111.39233672 17.58646465 107.54118347 20.15390015 C105.43686104 20.41116905 105.43686104 20.41116905 102.96211243 20.42132568 C102.02282898 20.42985565 101.08354553 20.43838562 100.11579895 20.44717407 C99.08715729 20.4462677 98.05851562 20.44536133 96.998703 20.44442749 C95.37149323 20.45450333 95.37149323 20.45450333 93.71141052 20.46478271 C90.11555943 20.48382299 86.51989438 20.48768998 82.92399597 20.48983765 C80.42919334 20.49626139 77.93439148 20.50298943 75.43959045 20.51000977 C70.20570159 20.52199764 64.9718601 20.52577455 59.73796082 20.52450562 C54.36023635 20.52343714 48.982799 20.53752383 43.60514832 20.56552124 C37.11775351 20.59881763 30.63061698 20.61261836 24.14313889 20.61128616 C21.66877153 20.61364899 19.19440164 20.62251059 16.72008133 20.6379509 C13.26056939 20.65751705 9.80197936 20.65180892 6.342453 20.63973999 C4.8055632 20.65659851 4.8055632 20.65659851 3.23762512 20.67379761 C-1.18669945 20.63451869 -3.73443919 20.59732763 -7.57139587 18.24853516 C-10.52654034 14.96895408 -10.79198845 12.61531142 -10.75178528 8.19296265 C-10.29626686 5.02255448 -8.70565996 3.33465994 -6.45881653 1.15390015 C-4.09048693 -0.03026465 -2.64262843 0.01801091 0 0 Z " fill="#30C6FE" transform="translate(63.45881652832031,59.846099853515625)"/>
<path d="M0 0 C0.6847641 -0.0065712 1.3695282 -0.0131424 2.07504272 -0.01991272 C4.34519558 -0.03965166 6.61528225 -0.05130982 8.88549805 -0.0612793 C10.04835359 -0.06739259 10.04835359 -0.06739259 11.23470116 -0.07362938 C15.33826812 -0.0944931 19.44180161 -0.10879323 23.54541016 -0.11816406 C27.78248809 -0.12922666 32.01904058 -0.16362342 36.25593281 -0.20333576 C39.51506013 -0.2294913 42.77406209 -0.23785494 46.03328514 -0.24144554 C47.59498835 -0.24631464 49.15668584 -0.25793794 50.71828651 -0.27648354 C52.90636338 -0.30085293 55.09307876 -0.29991487 57.28125 -0.29296875 C59.14750786 -0.30176811 59.14750786 -0.30176811 61.0514679 -0.31074524 C64.93432349 0.26607728 66.57011956 1.44632469 69.3347168 4.17700195 C70.93558307 7.37873449 70.83388769 10.70277254 70.3347168 14.17700195 C68.54107769 16.98703656 67.31590744 18.68640663 64.3347168 20.17700195 C62.11502443 20.2895591 59.89190809 20.33638532 57.66943359 20.35400391 C56.64228745 20.3638607 56.64228745 20.3638607 55.59439087 20.37391663 C53.32423801 20.39365557 51.05415134 20.40531372 48.78393555 20.4152832 C47.62108001 20.42139649 47.62108001 20.42139649 46.43473244 20.42763329 C42.33116547 20.448497 38.22763198 20.46279714 34.12402344 20.47216797 C29.8869455 20.48323057 25.65039301 20.51762733 21.41350079 20.55733967 C18.15437346 20.5834952 14.8953715 20.59185885 11.63614845 20.59544945 C10.07444525 20.60031854 8.51274776 20.61194184 6.95114708 20.63048744 C4.76307022 20.65485684 2.57635484 20.65391878 0.38818359 20.64697266 C-1.47807426 20.65577202 -1.47807426 20.65577202 -3.3820343 20.66474915 C-7.26488989 20.08792662 -8.90068596 18.90767922 -11.6652832 16.17700195 C-13.26614947 12.97526941 -13.1644541 9.65123136 -12.6652832 6.17700195 C-9.00084609 0.43605048 -6.57318389 0.05210868 0 0 Z " fill="#29CDFE" transform="translate(65.665283203125,139.822998046875)"/>
</svg>
